<svg xmlns="http://www.w3.org/2000/svg" width="18.401" height="16" viewBox="0 0 18.401 16">
  <path id="credit" d="M17.8,24H2.6A1.834,1.834,0,0,1,1,22V10A1.834,1.834,0,0,1,2.6,8H17.8a1.834,1.834,0,0,1,1.6,2V22A1.834,1.834,0,0,1,17.8,24Zm-16-9.5H18.6v-2H1.8ZM18.6,10a.917.917,0,0,0-.8-1H2.6a.917.917,0,0,0-.8,1v1.5H18.6Zm0,5.5H1.8V22a.917.917,0,0,0,.8,1H17.8a.917.917,0,0,0,.8-1Zm-7.6,3H9.4a.512.512,0,0,1,0-1H11a.512.512,0,0,1,0,1Zm-3.6,0H3.8a.512.512,0,0,1,0-1H7.4a.512.512,0,0,1,0,1ZM3.8,20H6.2a.512.512,0,0,1,0,1H3.8a.512.512,0,0,1,0-1Z" transform="translate(-1 -8)" fill="#fff" fill-rule="evenodd"/>
</svg>
