<svg xmlns="http://www.w3.org/2000/svg" width="14.995" height="16" viewBox="0 0 14.995 16">
  <path id="box_1_" data-name="box (1)" d="M11.483,3h-.008a.308.308,0,0,0-.1.026L4.26,6.069A.308.308,0,0,0,4,6.376v9.229a.308.308,0,0,0,.026.127v0l.008.017a.308.308,0,0,0,.157.147l7.115,3.042a.339.339,0,0,0,.382,0L18.8,15.9a.308.308,0,0,0,.189-.243q0-.008,0-.017s0-.01,0-.014,0-.01,0-.016,0,0,0,0V6.376a.308.308,0,0,0-.255-.306L11.632,3.031l-.007,0a.308.308,0,0,0-.05-.017l-.008,0-.022,0h-.061Zm.014.643L13,4.287,6.614,7.02,6.6,7.029,5.087,6.383Zm2.29.979,1.829.782L9.108,8.188a.414.414,0,0,0-.186.35v3.291l-.667-1a.308.308,0,0,0-.393-.1l-.786.393V7.492ZM16.4,5.738l1.509.645L11.5,9.124,9.99,8.48,16.38,5.747ZM4.615,6.85l1.846.789v3.975a.308.308,0,0,0,.445.275l.988-.494,1.063,1.594v0a.308.308,0,0,0,.155.139h0l.028.01a.308.308,0,0,0,.056.012h.036l.036,0,.025,0,.018,0,.016,0a.308.308,0,0,0,.05-.022h0a.308.308,0,0,0,.156-.309V8.956l1.653.707v8.561L4.615,15.41Zm13.765,0v8.56l-6.575,2.813V9.662Z" transform="translate(-4 -3)" fill="#fff" fill-rule="evenodd"/>
</svg>
