<svg xmlns="http://www.w3.org/2000/svg" width="17.454" height="16" viewBox="0 0 17.454 16">
  <g id="Group_1328" data-name="Group 1328" transform="translate(-36.182 -154)">
    <path id="Path_9794" data-name="Path 9794" d="M0,32.5H17.454v.989h-.731l-.881,7.3a2.576,2.576,0,0,1-2.592,2.145H4.2a2.576,2.576,0,0,1-2.592-2.145l-.881-7.3H0Zm2.65,8.161A1.544,1.544,0,0,0,4.2,41.949H13.25A1.544,1.544,0,0,0,14.8,40.663l.863-7.173H1.787Z" transform="translate(36.182 127.063)" fill="#fff"/>
    <path id="Path_9795" data-name="Path 9795" d="M24.321,5.343H15.732l-.652,3.6H14.06l.867-4.779h10.2l.867,4.779H24.973Z" transform="translate(24.882 149.835)" fill="#fff"/>
    <path id="Path_9796" data-name="Path 9796" d="M37.119,57.263,34.77,54.915l.833-.833L37.119,55.6l2.8-2.8.833.833Z" transform="translate(7.148 109.34)" fill="#fff"/>
  </g>
</svg>
